<?xml version="1.0" standalone="no"?><!DOCTYPE svg PUBLIC "-//W3C//DTD SVG 1.1//EN" "http://www.w3.org/Graphics/SVG/1.1/DTD/svg11.dtd"><svg t="1638010921082" class="icon" viewBox="0 0 1024 1024" version="1.1" xmlns="http://www.w3.org/2000/svg" p-id="1666" xmlns:xlink="http://www.w3.org/1999/xlink" width="200" height="200"><defs><style type="text/css"></style></defs><path d="M511.948866 570.036552m-453.963447 0a453.963448 453.963448 0 1 0 907.926895 0 453.963448 453.963448 0 1 0-907.926895 0Z" fill="#FF8A57" p-id="1667"></path><path d="M954.049336 214.760811C876.121842 137.855987 801.262359 97.562768 683.143913 202.693299c0 0 172.217717 118.118446 254.235893 30.680116" fill="#69DB64" p-id="1668"></path><path d="M800.035154 2.658943l26.793968 18.40807a16.260461 16.260461 0 0 1 4.295216 22.19195A1067.872566 1067.872566 0 0 1 678.235094 231.123539a15.340058 15.340058 0 0 1-21.680615-0.511335 16.260461 16.260461 0 0 1 0-22.601019c21.067013-21.680615 68.416658-78.745631 120.572855-198.500349a15.544592 15.544592 0 0 1 22.90782-6.851893z" fill="#604D42" p-id="1669"></path><path d="M634.132428 266.093127a46.736043 35.588934 30 1 0 35.588934-61.641843 46.736043 35.588934 30 1 0-35.588934 61.641843Z" fill="#604D42" p-id="1670"></path><path d="M805.148507 675.985219m-24.748627 0a24.748627 24.748627 0 1 0 49.497254 0 24.748627 24.748627 0 1 0-49.497254 0Z" fill="#E2642D" p-id="1671"></path><path d="M718.528313 780.706681m-24.748627 0a24.748627 24.748627 0 1 0 49.497254 0 24.748627 24.748627 0 1 0-49.497254 0Z" fill="#E2642D" p-id="1672"></path><path d="M595.09198 880.00799m-24.748626 0a24.748627 24.748627 0 1 0 49.497253 0 24.748627 24.748627 0 1 0-49.497253 0Z" fill="#E2642D" p-id="1673"></path><path d="M809.034655 805.455308m-24.748627 0a24.748627 24.748627 0 1 0 49.497254 0 24.748627 24.748627 0 1 0-49.497254 0Z" fill="#E2642D" p-id="1674"></path><path d="M736.220513 880.00799m-24.748626 0a24.748627 24.748627 0 1 0 49.497253 0 24.748627 24.748627 0 1 0-49.497253 0Z" fill="#E2642D" p-id="1675"></path><path d="M292.483771 323.163887c43.463497 0 43.463497-67.598522 0-67.598522s-43.565765 67.598522 0 67.598522zM201.159293 341.981025C129.572356 421.237991 109.118945 531.788675 123.027265 634.567063c5.829222 42.849895 70.871068 24.64636 65.144112-17.896734-10.226705-77.927494 6.647358-167.308898 60.644363-226.930591C277.859583 357.934685 230.305403 309.664636 201.159293 341.981025z" fill="#FFFFFF" p-id="1676"></path></svg>