<?xml version="1.0" standalone="no"?><!DOCTYPE svg PUBLIC "-//W3C//DTD SVG 1.1//EN" "http://www.w3.org/Graphics/SVG/1.1/DTD/svg11.dtd"><svg t="1638009853484" class="icon" viewBox="0 0 1024 1024" version="1.1" xmlns="http://www.w3.org/2000/svg" p-id="1306" xmlns:xlink="http://www.w3.org/1999/xlink" width="200" height="200"><defs><style type="text/css"></style></defs><path d="M540 106.1c-59 0-116.2 11.6-170 34.3-52 22-98.7 53.5-138.8 93.6-40.1 40.1-71.6 86.8-93.6 138.8-22.8 53.9-34.3 111.1-34.3 170V924h381.1c59 0 116.2-11.6 170-34.3 52-22 98.7-53.5 138.8-93.6s71.6-86.8 93.6-138.8c22.8-53.9 34.3-111.1 34.3-170V106.1H540z m311.1 381.1c0 202.6-164.2 366.8-366.8 366.8H233c51.7-149.8 160.9-257.7 246.1-323.1C545.4 480 607.5 446.4 642 429.5c15.8-7.8 23-26.4 16.3-42.7l-1.1-2.8c-7.3-18-28.3-26.1-45.8-17.5-37.4 18.3-102.6 53.6-173.3 107.6-63.3 48.4-118 101.9-162.5 159.1C231.3 690 197 750.5 173.1 813.7V542.9c0-202.6 164.2-366.8 366.8-366.8H851v311.1z" p-id="1307"></path></svg>